<mxfile host="app.diagrams.net" agent="Mozilla/5.0 (Windows NT 10.0; Win64; x64) AppleWebKit/537.36 (KHTML, like Gecko) Chrome/135.0.0.0 Safari/537.36" version="26.2.13" pages="2">
  <diagram name="hubVirtualNetwork" id="V0pvzqXnFK5bAlK4BD1L">
    <mxGraphModel dx="1044" dy="562" grid="1" gridSize="10" guides="1" tooltips="1" connect="1" arrows="1" fold="1" page="1" pageScale="1" pageWidth="850" pageHeight="1100" math="0" shadow="0">
      <root>
        <mxCell id="0" />
        <mxCell id="1" parent="0" />
        <mxCell id="G17Rezocz1zyg59zB00v-3" value="" style="rounded=0;whiteSpace=wrap;html=1;dashed=1;" vertex="1" parent="1">
          <mxGeometry x="120" y="280" width="120" height="90" as="geometry" />
        </mxCell>
        <mxCell id="SzBSsbNIgU5acUOj20ld-1" value="" style="rounded=0;whiteSpace=wrap;html=1;dashed=1;" parent="1" vertex="1">
          <mxGeometry x="320" y="120" width="120" height="90" as="geometry" />
        </mxCell>
        <mxCell id="SzBSsbNIgU5acUOj20ld-2" value="" style="image;aspect=fixed;html=1;points=[];align=center;fontSize=12;image=img/lib/azure2/networking/Virtual_Networks.svg;" parent="1" vertex="1">
          <mxGeometry x="329.75" y="130" width="33.5" height="20" as="geometry" />
        </mxCell>
        <mxCell id="SzBSsbNIgU5acUOj20ld-3" value="HUB Virtual Network" style="text;strokeColor=none;align=center;fillColor=none;html=1;verticalAlign=middle;whiteSpace=wrap;rounded=0;" parent="1" vertex="1">
          <mxGeometry x="340" y="165" width="80" height="30" as="geometry" />
        </mxCell>
        <mxCell id="8IHM02-2g00QuZxhu5uI-4" value="" style="image;aspect=fixed;html=1;points=[];align=center;fontSize=12;image=img/lib/azure2/networking/Route_Tables.svg;" parent="1" vertex="1">
          <mxGeometry x="209.99999999999997" y="290" width="22.71" height="22" as="geometry" />
        </mxCell>
        <mxCell id="8AGpeRbcHpc9Le4n34yA-1" value="Spoke Virtual Network" style="text;strokeColor=none;align=center;fillColor=none;html=1;verticalAlign=middle;whiteSpace=wrap;rounded=0;" vertex="1" parent="1">
          <mxGeometry x="140" y="320" width="80" height="30" as="geometry" />
        </mxCell>
        <mxCell id="8AGpeRbcHpc9Le4n34yA-2" value="" style="image;aspect=fixed;html=1;points=[];align=center;fontSize=12;image=img/lib/azure2/networking/Virtual_Networks.svg;" vertex="1" parent="1">
          <mxGeometry x="130" y="290" width="33.5" height="20" as="geometry" />
        </mxCell>
        <mxCell id="8AGpeRbcHpc9Le4n34yA-3" value="" style="rounded=0;whiteSpace=wrap;html=1;dashed=1;" vertex="1" parent="1">
          <mxGeometry x="320" y="280" width="120" height="90" as="geometry" />
        </mxCell>
        <mxCell id="8AGpeRbcHpc9Le4n34yA-4" value="" style="image;aspect=fixed;html=1;points=[];align=center;fontSize=12;image=img/lib/azure2/networking/Route_Tables.svg;" vertex="1" parent="1">
          <mxGeometry x="410" y="290" width="22.71" height="22" as="geometry" />
        </mxCell>
        <mxCell id="8AGpeRbcHpc9Le4n34yA-5" value="Spoke Virtual Network" style="text;strokeColor=none;align=center;fillColor=none;html=1;verticalAlign=middle;whiteSpace=wrap;rounded=0;" vertex="1" parent="1">
          <mxGeometry x="340" y="320" width="80" height="30" as="geometry" />
        </mxCell>
        <mxCell id="8AGpeRbcHpc9Le4n34yA-6" value="" style="image;aspect=fixed;html=1;points=[];align=center;fontSize=12;image=img/lib/azure2/networking/Virtual_Networks.svg;" vertex="1" parent="1">
          <mxGeometry x="330" y="290" width="33.5" height="20" as="geometry" />
        </mxCell>
        <mxCell id="8AGpeRbcHpc9Le4n34yA-7" value="" style="rounded=0;whiteSpace=wrap;html=1;dashed=1;" vertex="1" parent="1">
          <mxGeometry x="520" y="280" width="120" height="90" as="geometry" />
        </mxCell>
        <mxCell id="8AGpeRbcHpc9Le4n34yA-8" value="" style="image;aspect=fixed;html=1;points=[];align=center;fontSize=12;image=img/lib/azure2/networking/Route_Tables.svg;" vertex="1" parent="1">
          <mxGeometry x="610" y="290" width="22.71" height="22" as="geometry" />
        </mxCell>
        <mxCell id="8AGpeRbcHpc9Le4n34yA-9" value="Spoke Virtual Network" style="text;strokeColor=none;align=center;fillColor=none;html=1;verticalAlign=middle;whiteSpace=wrap;rounded=0;" vertex="1" parent="1">
          <mxGeometry x="540" y="320" width="80" height="30" as="geometry" />
        </mxCell>
        <mxCell id="8AGpeRbcHpc9Le4n34yA-10" value="" style="image;aspect=fixed;html=1;points=[];align=center;fontSize=12;image=img/lib/azure2/networking/Virtual_Networks.svg;" vertex="1" parent="1">
          <mxGeometry x="530" y="290" width="33.5" height="20" as="geometry" />
        </mxCell>
        <mxCell id="8AGpeRbcHpc9Le4n34yA-11" value="" style="endArrow=classic;startArrow=classic;html=1;rounded=0;fillColor=#dae8fc;strokeColor=#6c8ebf;dashed=1;" edge="1" parent="1">
          <mxGeometry width="50" height="50" relative="1" as="geometry">
            <mxPoint x="190" y="270" as="sourcePoint" />
            <mxPoint x="329.75" y="220" as="targetPoint" />
          </mxGeometry>
        </mxCell>
        <mxCell id="8AGpeRbcHpc9Le4n34yA-12" value="" style="endArrow=classic;startArrow=classic;html=1;rounded=0;fillColor=#dae8fc;strokeColor=#6c8ebf;dashed=1;" edge="1" parent="1">
          <mxGeometry width="50" height="50" relative="1" as="geometry">
            <mxPoint x="430" y="220" as="sourcePoint" />
            <mxPoint x="570" y="270" as="targetPoint" />
          </mxGeometry>
        </mxCell>
        <mxCell id="8AGpeRbcHpc9Le4n34yA-13" value="" style="endArrow=classic;startArrow=classic;html=1;rounded=0;fillColor=#dae8fc;strokeColor=#6c8ebf;dashed=1;" edge="1" parent="1">
          <mxGeometry width="50" height="50" relative="1" as="geometry">
            <mxPoint x="380" y="270" as="sourcePoint" />
            <mxPoint x="380" y="220" as="targetPoint" />
          </mxGeometry>
        </mxCell>
      </root>
    </mxGraphModel>
  </diagram>
  <diagram id="VdQ6MAHld9TvuAuTd4kw" name="virtualWan">
    <mxGraphModel dx="1044" dy="562" grid="1" gridSize="10" guides="1" tooltips="1" connect="1" arrows="1" fold="1" page="1" pageScale="1" pageWidth="850" pageHeight="1100" math="0" shadow="0">
      <root>
        <mxCell id="0" />
        <mxCell id="1" parent="0" />
        <mxCell id="J2kcwH8CixweF59pTDtv-19" value="" style="rounded=0;whiteSpace=wrap;html=1;dashed=1;" parent="1" vertex="1">
          <mxGeometry x="200" y="80" width="320" height="120" as="geometry" />
        </mxCell>
        <mxCell id="J2kcwH8CixweF59pTDtv-3" value="Virtual HUB&amp;nbsp;" style="text;strokeColor=none;align=center;fillColor=none;html=1;verticalAlign=middle;whiteSpace=wrap;rounded=0;" parent="1" vertex="1">
          <mxGeometry x="325" y="154" width="70" height="30" as="geometry" />
        </mxCell>
        <mxCell id="J2kcwH8CixweF59pTDtv-20" value="" style="image;aspect=fixed;html=1;points=[];align=center;fontSize=12;image=img/lib/azure2/networking/Virtual_WAN_Hub.svg;" parent="1" vertex="1">
          <mxGeometry x="337.65000000000003" y="110" width="44.69" height="44" as="geometry" />
        </mxCell>
        <mxCell id="J2kcwH8CixweF59pTDtv-21" value="" style="image;sketch=0;aspect=fixed;html=1;points=[];align=center;fontSize=12;image=img/lib/mscae/Virtual_WANs.svg;" parent="1" vertex="1">
          <mxGeometry x="220" y="70" width="30" height="30" as="geometry" />
        </mxCell>
        <mxCell id="RoEmGKjukc3FFuC4irwp-1" value="" style="rounded=0;whiteSpace=wrap;html=1;dashed=1;" vertex="1" parent="1">
          <mxGeometry x="80" y="280" width="120" height="90" as="geometry" />
        </mxCell>
        <mxCell id="RoEmGKjukc3FFuC4irwp-2" value="" style="image;aspect=fixed;html=1;points=[];align=center;fontSize=12;image=img/lib/azure2/networking/Route_Tables.svg;" vertex="1" parent="1">
          <mxGeometry x="170" y="290" width="22.71" height="22" as="geometry" />
        </mxCell>
        <mxCell id="RoEmGKjukc3FFuC4irwp-3" value="" style="image;aspect=fixed;html=1;points=[];align=center;fontSize=12;image=img/lib/azure2/networking/Virtual_Networks.svg;" vertex="1" parent="1">
          <mxGeometry x="90" y="290" width="33.5" height="20" as="geometry" />
        </mxCell>
        <mxCell id="KugWOnecY694NJaBdK2E-1" value="Spoke Virtual Network" style="text;strokeColor=none;align=center;fillColor=none;html=1;verticalAlign=middle;whiteSpace=wrap;rounded=0;" vertex="1" parent="1">
          <mxGeometry x="80" y="320" width="120" height="30" as="geometry" />
        </mxCell>
        <mxCell id="ha1caSoCFvY4Suuhu9xZ-1" value="" style="rounded=0;whiteSpace=wrap;html=1;dashed=1;" vertex="1" parent="1">
          <mxGeometry x="300" y="280" width="120" height="90" as="geometry" />
        </mxCell>
        <mxCell id="ha1caSoCFvY4Suuhu9xZ-2" value="" style="image;aspect=fixed;html=1;points=[];align=center;fontSize=12;image=img/lib/azure2/networking/Route_Tables.svg;" vertex="1" parent="1">
          <mxGeometry x="390" y="290" width="22.71" height="22" as="geometry" />
        </mxCell>
        <mxCell id="ha1caSoCFvY4Suuhu9xZ-3" value="" style="image;aspect=fixed;html=1;points=[];align=center;fontSize=12;image=img/lib/azure2/networking/Virtual_Networks.svg;" vertex="1" parent="1">
          <mxGeometry x="310" y="290" width="33.5" height="20" as="geometry" />
        </mxCell>
        <mxCell id="ha1caSoCFvY4Suuhu9xZ-4" value="Spoke Virtual Network" style="text;strokeColor=none;align=center;fillColor=none;html=1;verticalAlign=middle;whiteSpace=wrap;rounded=0;" vertex="1" parent="1">
          <mxGeometry x="300" y="320" width="120" height="30" as="geometry" />
        </mxCell>
        <mxCell id="ha1caSoCFvY4Suuhu9xZ-5" value="" style="rounded=0;whiteSpace=wrap;html=1;dashed=1;" vertex="1" parent="1">
          <mxGeometry x="520" y="280" width="120" height="90" as="geometry" />
        </mxCell>
        <mxCell id="ha1caSoCFvY4Suuhu9xZ-6" value="" style="image;aspect=fixed;html=1;points=[];align=center;fontSize=12;image=img/lib/azure2/networking/Route_Tables.svg;" vertex="1" parent="1">
          <mxGeometry x="610" y="290" width="22.71" height="22" as="geometry" />
        </mxCell>
        <mxCell id="ha1caSoCFvY4Suuhu9xZ-7" value="" style="image;aspect=fixed;html=1;points=[];align=center;fontSize=12;image=img/lib/azure2/networking/Virtual_Networks.svg;" vertex="1" parent="1">
          <mxGeometry x="530" y="290" width="33.5" height="20" as="geometry" />
        </mxCell>
        <mxCell id="ha1caSoCFvY4Suuhu9xZ-8" value="Spoke Virtual Network" style="text;strokeColor=none;align=center;fillColor=none;html=1;verticalAlign=middle;whiteSpace=wrap;rounded=0;" vertex="1" parent="1">
          <mxGeometry x="520" y="320" width="120" height="30" as="geometry" />
        </mxCell>
        <mxCell id="GxYrWvn9-tfn_gBZAKMv-1" value="" style="endArrow=classic;startArrow=classic;html=1;rounded=0;fillColor=#dae8fc;strokeColor=#6c8ebf;dashed=1;" edge="1" parent="1">
          <mxGeometry width="50" height="50" relative="1" as="geometry">
            <mxPoint x="140" y="270" as="sourcePoint" />
            <mxPoint x="279.75" y="220" as="targetPoint" />
          </mxGeometry>
        </mxCell>
        <mxCell id="oFn7edFyhZ_blRS1Clfx-1" value="" style="endArrow=classic;startArrow=classic;html=1;rounded=0;fillColor=#dae8fc;strokeColor=#6c8ebf;dashed=1;" edge="1" parent="1">
          <mxGeometry width="50" height="50" relative="1" as="geometry">
            <mxPoint x="359.5" y="270" as="sourcePoint" />
            <mxPoint x="359.5" y="220" as="targetPoint" />
          </mxGeometry>
        </mxCell>
        <mxCell id="XZGq06_XRQxmruax-C11-1" value="" style="endArrow=classic;startArrow=classic;html=1;rounded=0;fillColor=#dae8fc;strokeColor=#6c8ebf;dashed=1;" edge="1" parent="1">
          <mxGeometry width="50" height="50" relative="1" as="geometry">
            <mxPoint x="430" y="220" as="sourcePoint" />
            <mxPoint x="570" y="270" as="targetPoint" />
          </mxGeometry>
        </mxCell>
      </root>
    </mxGraphModel>
  </diagram>
</mxfile>
